USFL
nRows=267
nColumns=2
inDegrees=yes
endheader
time	tib_ant_r	
3.19355	 60.158631	
3.22681	 60.154864	
3.26008	 60.151746	
3.29335	 60.145936	
3.32661	 60.150796	
3.35988	 60.149378	
3.39315	 60.120808	
3.42641	 60.139784	
3.45968	 60.122257	
3.49294	 60.113716	
3.52621	 60.107377	
3.55948	 60.112195	
3.59274	 60.109122	
3.62601	 60.102668	
3.65927	 60.110607	
3.69254	 60.115900	
3.72581	 60.123584	
3.75907	 60.119605	
3.79234	 60.125992	
3.8256	 60.133769	
3.85887	 60.123424	
3.89214	 60.132939	
3.9254	 60.114329	
3.95867	 60.110301	
3.99194	 60.114529	
4.0252	 60.112867	
4.05847	 60.138125	
4.09173	 60.159712	
4.125	 60.164191	
4.15827	 60.134732	
4.19153	 60.149402	
4.2248	 60.157461	
4.25806	 60.140821	
4.29133	 60.124289	
4.3246	 60.118310	
4.35786	 60.108018	
4.39113	 60.143336	
4.4244	 60.143744	
4.45766	 60.146357	
4.49093	 60.149856	
4.52419	 60.144675	
4.55746	 60.154049	
4.59073	 60.144567	
4.62399	 60.139551	
4.65726	 60.096635	
4.69052	 60.093489	
4.72379	 60.076246	
4.75706	 60.076845	
4.79032	 60.081499	
4.82359	 60.079417	
4.85685	 60.078204	
4.89012	 60.077070	
4.92339	 60.077116	
4.95665	 60.058136	
4.98992	 60.084132	
5.02319	 60.083154	
5.05645	 60.082822	
5.08972	 60.108354	
5.12298	 60.123512	
5.15625	 60.147297	
5.18952	 60.155156	
5.22278	 60.036908	
5.25605	 59.458259	
5.28931	 59.123386	
5.32258	 59.179169	
5.35585	 59.343967	
5.38911	 59.492783	
5.42238	 59.618347	
5.45565	 59.465033	
5.48891	 58.940109	
5.52218	 58.786817	
5.55544	 58.154194	
5.58871	 57.779637	
5.62198	 57.422402	
5.65524	 57.186734	
5.68851	 56.850007	
5.72177	 56.604421	
5.75504	 56.336749	
5.78831	 56.223833	
5.82157	 56.126943	
5.85484	 55.976006	
5.8881	 55.865435	
5.92137	 55.811803	
5.95464	 55.797509	
5.9879	 55.746905	
6.02117	 55.814835	
6.05444	 55.655923	
6.0877	 55.719039	
6.12097	 55.872148	
6.15423	 55.821210	
6.1875	 55.852724	
6.22077	 55.831433	
6.25403	 55.768129	
6.2873	 55.735796	
6.32056	 55.766960	
6.35383	 55.784653	
6.3871	 55.727599	
6.42036	 55.730361	
6.45363	 55.892583	
6.4869	 55.826219	
6.52016	 55.838053	
6.55343	 55.835968	
6.58669	 55.787736	
6.61996	 55.825422	
6.65323	 55.890236	
6.68649	 55.808612	
6.71976	 55.716937	
6.75302	 55.718790	
6.78629	 55.679997	
6.81956	 55.691904	
6.85282	 55.646934	
6.88609	 55.600916	
6.91935	 55.626436	
6.95262	 55.657671	
6.98589	 55.670618	
7.01915	 55.677575	
7.05242	 55.652594	
7.08569	 55.580417	
7.11895	 55.586929	
7.15222	 55.606459	
7.18548	 55.492561	
7.21875	 55.549598	
7.25202	 55.551288	
7.28528	 55.565095	
7.31855	 55.556960	
7.35181	 55.514543	
7.38508	 55.452471	
7.41835	 55.595652	
7.45161	 55.500545	
7.48488	 55.429540	
7.51815	 55.340834	
7.55141	 55.357681	
7.58468	 55.419127	
7.61794	 55.319325	
7.65121	 55.324650	
7.68448	 55.368264	
7.71774	 55.376084	
7.75101	 55.341538	
7.78427	 55.271278	
7.81754	 55.327945	
7.85081	 55.285844	
7.88407	 55.312829	
7.91734	 55.291292	
7.9506	 55.247647	
7.98387	 55.268233	
8.01714	 55.265783	
8.0504	 55.278611	
8.08367	 55.272562	
8.11694	 55.269074	
8.1502	 55.300209	
8.18347	 55.243225	
8.21673	 55.292354	
8.25	 55.288427	
8.28327	 55.147601	
8.31653	 54.908304	
8.3498	 54.926736	
8.38306	 54.958385	
8.41633	 54.989579	
8.4496	 54.895977	
8.48286	 54.771937	
8.51613	 54.908981	
8.5494	 54.896430	
8.58266	 54.831687	
8.61593	 54.776867	
8.64919	 54.823184	
8.68246	 54.951812	
8.71573	 54.793380	
8.74899	 54.895491	
8.78226	 54.923504	
8.81552	 54.793784	
8.84879	 54.827092	
8.88206	 54.799568	
8.91532	 54.746815	
8.94859	 54.692212	
8.98185	 54.663016	
9.01512	 54.743719	
9.04839	 54.706193	
9.08165	 54.721312	
9.11492	 54.812668	
9.14819	 54.745553	
9.18145	 54.845963	
9.21472	 54.858802	
9.24798	 54.902255	
9.28125	 54.823968	
9.31452	 54.924567	
9.34778	 54.870390	
9.38105	 54.770667	
9.41431	 54.745257	
9.44758	 54.662716	
9.48085	 54.680208	
9.51411	 54.732006	
9.54738	 54.762509	
9.58065	 54.731201	
9.61391	 54.816661	
9.64718	 54.749869	
9.68044	 54.765403	
9.71371	 54.823803	
9.74698	 54.674778	
9.78024	 54.733696	
9.81351	 54.786381	
9.84677	 54.701511	
9.88004	 54.698811	
9.91331	 54.762481	
9.94657	 54.692877	
9.97984	 54.652824	
10.0131	 54.686324	
10.0464	 54.623134	
10.0796	 54.581441	
10.1129	 54.728176	
10.1462	 54.607978	
10.1794	 54.526978	
10.2127	 54.527148	
10.246	 54.467395	
10.2792	 54.343823	
10.3125	 54.428560	
10.3458	 54.485311	
10.379	 54.357771	
10.4123	 54.416667	
10.4456	 54.302006	
10.4788	 54.244876	
10.5121	 54.322926	
10.5454	 54.208123	
10.5786	 54.413647	
10.6119	 54.459643	
10.6452	 54.403254	
10.6784	 54.263942	
10.7117	 54.267825	
10.745	 54.100463	
10.7782	 54.185461	
10.8115	 54.618406	
10.8448	 54.896532	
10.878	 55.243484	
10.9113	 55.850964	
10.9446	 56.287634	
10.9778	 56.970900	
11.0111	 57.371951	
11.0444	 57.710510	
11.0776	 58.079554	
11.1109	 58.518791	
11.1442	 59.141459	
11.1774	 59.464782	
11.2107	 59.669982	
11.244	 60.000492	
11.2772	 60.043215	
11.3105	 60.075037	
11.3437	 60.022965	
11.377	 60.033512	
11.4103	 60.305283	
11.4435	 60.640221	
11.4768	 60.968165	
11.5101	 61.287674	
11.5433	 61.280654	
11.5766	 61.306539	
11.6099	 61.502863	
11.6431	 61.757474	
11.6764	 61.810727	
11.7097	 61.962667	
11.7429	 62.114202	
11.7762	 61.973774	
11.8095	 62.125449	
11.8427	 62.173300	
11.876	 62.256739	
11.9093	 62.353906	
11.9425	 62.417113	
11.9758	 62.519098	
12.0091	 62.661350	
12.0423	 62.741907	
